<?xml version="1.0" encoding="UTF-8"?>
<svg version="1.1" xmlns="http://www.w3.org/2000/svg" width="1010" height="288">
<path d="M0 0 C1.18414294 3.55242882 0.69535532 4.69830562 -0.4375 8.1875 C-0.72496094 9.08855469 -1.01242187 9.98960938 -1.30859375 10.91796875 C-1.53675781 11.60503906 -1.76492188 12.29210938 -2 13 C5.97022862 11.10875931 11.13887047 7.14229032 17.375 2.08203125 C20 0 20 0 21 0 C22.02871148 6.51517273 18.43706486 10.81925346 15 16 C14.57460938 16.65226562 14.14921875 17.30453125 13.7109375 17.9765625 C12.82128994 19.3270347 11.91319148 20.66533553 11 22 C11.72832031 22.10054687 12.45664062 22.20109375 13.20703125 22.3046875 C16.33012527 23.08218503 18.10630017 24.22216508 20.6875 26.125 C21.54730469 26.75148438 22.40710938 27.37796875 23.29296875 28.0234375 C24.18628906 28.67570312 25.07960938 29.32796875 26 30 C28.65257884 31.81278052 31.3085277 33.62033205 33.96875 35.421875 C36 37 36 37 38 40 C38 40.99 38 41.98 38 43 C37.20335937 42.55527344 37.20335937 42.55527344 36.390625 42.1015625 C33.55882182 40.79671201 30.78105074 40.09981648 27.75 39.375 C26.67234375 39.11460938 25.5946875 38.85421875 24.484375 38.5859375 C23.66453125 38.39257812 22.8446875 38.19921875 22 38 C28.31636401 49.71370722 34.84735082 60.55006705 43.3671875 70.78125 C50.27504921 79.09997534 55.95947588 89.40137798 56.4375 100.4375 C55.97354519 104.21541773 55.4168709 106.08308685 53 109 C48.13181571 112.49510667 43.91025256 113.1721315 38 113.3125 C36.96875 113.34988281 35.9375 113.38726562 34.875 113.42578125 C32 113 32 113 29.68359375 111.27734375 C27.83193263 108.77266061 27.49393833 107.29430644 27.0625 104.25 C25.69216613 99.16018847 23.32535405 97.31562531 18.9375 94.5 C13.43615653 91.34744193 8.27476403 89.69612174 2 89 C-14.18947368 86.81052632 -14.18947368 86.81052632 -20.3125 80.6875 C-24.31220126 74.31760541 -25.4515158 69.3747581 -25 62 C-25.17273438 62.73605469 -25.34546875 63.47210938 -25.5234375 64.23046875 C-27.81115774 72.17452481 -27.81115774 72.17452481 -31.3515625 74.6328125 C-33.10842115 75.41536606 -34.87693055 76.17229945 -36.65625 76.90234375 C-40.11898521 78.52405807 -41.37117655 80.60661782 -43 84 C-45.0962213 89.89514944 -45.27154745 95.21356499 -45.1875 101.4375 C-45.18685547 102.34048828 -45.18621094 103.24347656 -45.18554688 104.17382812 C-45.15062141 109.53294665 -44.77524226 114.69734297 -44 120 C-48.54418356 119.13266826 -51.02334093 116.5122842 -54.1875 113.3125 C-54.75976318 112.7359668 -55.33202637 112.15943359 -55.92163086 111.56542969 C-65.11197704 102.01066317 -74.26762127 89.20376362 -75.08984375 75.60546875 C-74.65866169 63.1011891 -67.65836898 55.23600952 -59 47 C-61.64 46.67 -64.28 46.34 -67 46 C-61.60257489 38.31275817 -54.01419625 34.50578227 -46 30 C-44.6752153 29.24448111 -43.35096979 28.48801573 -42.02734375 27.73046875 C-41.02832031 27.15941406 -40.02929688 26.58835937 -39 26 C-57.66244379 29.23331093 -76.67412155 37.02605671 -88.3046875 52.765625 C-89.24320927 54.15075368 -90.12894979 55.57147765 -91 57 C-88.36 57 -85.72 57 -83 57 C-83.44730469 57.66644531 -83.89460938 58.33289063 -84.35546875 59.01953125 C-93.44443319 72.87584165 -98.15533983 86.38835006 -99 103 C-99.05285156 103.72316406 -99.10570312 104.44632812 -99.16015625 105.19140625 C-99.85324736 121.55438338 -93.00622957 136.52595274 -83 149 C-82.16662109 150.08087891 -82.16662109 150.08087891 -81.31640625 151.18359375 C-69.19751027 166.09245139 -49.69058987 174.39315457 -31 177 C-10.71478725 178.40270088 7.37441862 171.57348964 22.8359375 158.625 C26.67903246 155.19889775 30.3762476 151.6566956 34 148 C34.66 148.33 35.32 148.66 36 149 C22.29328799 167.94613776 5.10263947 180.25245947 -18.20776367 184.17333984 C-46.35411287 188.25542003 -69.97035755 180.07690516 -92.59375 163.3984375 C-105.68673492 153.28480728 -112.0624039 140.83345605 -116 125 C-116.23332031 124.09121094 -116.46664063 123.18242187 -116.70703125 122.24609375 C-118.02837672 116.17170702 -118.33863701 110.00425534 -118.6875 103.8125 C-118.73616211 102.96848633 -118.78482422 102.12447266 -118.83496094 101.25488281 C-119.07526542 96.02774685 -118.79360359 91.17334069 -118 86 C-119.42505859 86.49113281 -119.42505859 86.49113281 -120.87890625 86.9921875 C-125.56136707 88.33003345 -130.10295873 88.22058789 -134.9375 88.125 C-136.24944336 88.11146484 -136.24944336 88.11146484 -137.58789062 88.09765625 C-139.72538064 88.0742957 -141.86272786 88.03843247 -144 88 C-141.8317943 85.8317943 -140.09376828 85.06045039 -137.3125 83.8125 C-126.8710107 78.59924566 -122.17650991 70.0500046 -117 60 C-116.67 59.01 -116.34 58.02 -116 57 C-122.9326413 59.63866489 -128.33652851 63.23357955 -134 68 C-134.33 67.34 -134.66 66.68 -135 66 C-129.67214406 54.86357932 -121.46000075 45.80927052 -109.875 41.125 C-107.14218822 40.20482402 -104.55324381 39.78187644 -101.6875 39.5 C-97.8509357 38.97978789 -97.36121934 38.73174915 -95 36 C-96.21558594 35.80664062 -97.43117188 35.61328125 -98.68359375 35.4140625 C-100.26830626 35.15150658 -101.85293761 34.88846041 -103.4375 34.625 C-104.23994141 34.49867187 -105.04238281 34.37234375 -105.86914062 34.2421875 C-107.92520723 33.89517204 -109.96490131 33.45409572 -112 33 C-112.33 32.34 -112.66 31.68 -113 31 C-112.19820313 30.92523438 -111.39640625 30.85046875 -110.5703125 30.7734375 C-94.19254627 28.87941011 -80.24114106 23.09790374 -66 15 C-72.93 11.7 -79.86 8.4 -87 5 C-87 4.34 -87 3.68 -87 3 C-79.05262789 2.66564454 -71.73462791 3.98836602 -63.9375 5.4375 C-53.25698452 7.35985431 -42.76448081 8.58965395 -31.89038086 8.72241211 C-25.71660697 8.81167817 -20.01218155 9.58293562 -14 11 C-14 10.34 -14 9.68 -14 9 C-13.32453125 8.68546875 -12.6490625 8.3709375 -11.953125 8.046875 C-5.32416431 4.93666114 -5.32416431 4.93666114 0 0 Z " fill="#FFFFFF" transform="translate(539,31)"/>
<path d="M0 0 C3.78196913 0.62536497 7.30131322 1.73711464 10.92602539 2.96801758 C19.53001514 5.86313042 28.15941364 8.04141324 37.0625 9.8125 C38.09600586 10.01907227 39.12951172 10.22564453 40.19433594 10.43847656 C48.49585523 12.03131887 56.55485338 13.06229529 65.015625 13 C66.55089844 13.00193359 66.55089844 13.00193359 68.1171875 13.00390625 C70.22162485 13.00128226 72.32624032 12.96694594 74.4296875 12.90234375 C81.93923146 12.98789552 81.93923146 12.98789552 84.92114258 15.83300781 C86.48257129 18.15537196 87.75948241 20.49334487 89 23 C89.70875701 24.16999188 90.43008851 25.33252854 91.16796875 26.484375 C91.83441406 27.56203125 92.50085938 28.6396875 93.1875 29.75 C110.09898869 56.3510796 135.89153721 75.11152816 166.65039062 82.50048828 C177.29752261 84.76399951 188.1908646 85.82319897 199 87 C195.77297151 96.9744517 186.91960457 102.43958999 178.125 107.25 C169.11025732 111.47509152 158.73095582 113.69338956 149 111 C150.45044271 106.89041233 152.51110752 103.56741255 155 100 C154.26394531 100.27714844 153.52789062 100.55429687 152.76953125 100.83984375 C151.79371094 101.20207031 150.81789063 101.56429687 149.8125 101.9375 C148.84957031 102.29714844 147.88664063 102.65679687 146.89453125 103.02734375 C137.36621208 106.2291676 128.25157089 105.83768867 119 102 C119.38671875 101.55269531 119.7734375 101.10539062 120.171875 100.64453125 C123.18390075 97.1478974 126.14321031 93.62592537 129 90 C128.46052734 90.14147461 127.92105469 90.28294922 127.36523438 90.42871094 C121.66318004 91.82358149 116.35791484 92.30733685 110.5 92.25 C109.31470703 92.26160156 109.31470703 92.26160156 108.10546875 92.2734375 C102.51120766 92.25512568 97.40610689 91.41773054 92 90 C92 89.01 92 88.02 92 87 C93.5390625 85.640625 93.5390625 85.640625 95.625 84.25 C102.19171222 79.5428877 106.21535184 74.58043111 109 67 C108.21496094 67.40992188 107.42992187 67.81984375 106.62109375 68.2421875 C92.68228218 75.39117307 80.43465334 77.60420013 65 74 C50.29822608 69.25438923 38.38927942 60.15205412 29 48 C29 47.34 29 46.68 29 46 C29.5576001 46.09087891 30.1152002 46.18175781 30.68969727 46.27539062 C45.59334061 48.6636478 60.13311238 50.91786215 75 47 C73.63681641 46.96132812 73.63681641 46.96132812 72.24609375 46.921875 C51.15982118 45.97028937 34.01113213 38.53427191 18 25 C17.33484375 24.43796875 16.6696875 23.8759375 15.984375 23.296875 C11.97317926 19.58558175 8.82448277 15.21849322 5.625 10.8125 C5.18325439 10.20567383 4.74150879 9.59884766 4.28637695 8.97363281 C2.23754654 6.07182485 0.47875681 3.57294436 0 0 Z " fill="#FFFFFF" transform="translate(215,170)"/>
<path d="M0 0 C-1.94612852 6.76180368 -5.7405284 11.50287062 -10 17 C-10.49757813 17.65484375 -10.99515625 18.3096875 -11.5078125 18.984375 C-21.38664566 31.29057859 -35.23250981 38.37530556 -50 43 C-50.74636719 43.2371875 -51.49273438 43.474375 -52.26171875 43.71875 C-60.22673426 45.84692703 -68.80712727 45.66415408 -77 46 C-61.03231193 51.08062802 -46.10926069 48.94169108 -30 46 C-31.82596691 54.20344852 -39.231983 61.33932272 -46 66 C-56.2818488 71.52951967 -65.41509327 74.39314089 -77.0625 74.375 C-78.07948975 74.37411377 -79.09647949 74.37322754 -80.14428711 74.37231445 C-90.7769505 74.2059812 -99.51839537 71.91690938 -109 67 C-106.18536744 73.90221452 -102.9744224 78.49397136 -97.18359375 83.2109375 C-94.97506006 85.02043379 -92.98813274 86.95326017 -91 89 C-97.46435544 91.77043804 -103.24058325 92.19293312 -110.1875 92.1875 C-111.03159424 92.18814453 -111.87568848 92.18878906 -112.74536133 92.18945312 C-118.73120739 92.13874027 -124.189802 91.52398636 -130 90 C-126.37 93.63 -122.74 97.26 -119 101 C-124.8896661 105.41724957 -129.78604241 105.67493892 -137 105 C-142.72545102 103.93017888 -148.36506982 102.4642974 -154 101 C-153.6390625 101.55429687 -153.278125 102.10859375 -152.90625 102.6796875 C-152.4421875 103.40414062 -151.978125 104.12859375 -151.5 104.875 C-151.0359375 105.59429687 -150.571875 106.31359375 -150.09375 107.0546875 C-149 109 -149 109 -149 111 C-163.19519541 113.12288508 -175.10203393 110.06718154 -187 102 C-192.30964522 97.52173344 -196.54524939 93.55281471 -199 87 C-198.01326294 86.90295776 -198.01326294 86.90295776 -197.0065918 86.80395508 C-176.41878174 84.71813903 -157.59670597 81.31777513 -139 72 C-138.39317383 71.69723145 -137.78634766 71.39446289 -137.16113281 71.08251953 C-127.6687807 66.24413498 -119.82773386 60.16221803 -112 53 C-111.26136719 52.33226562 -110.52273438 51.66453125 -109.76171875 50.9765625 C-99.81530966 41.5284705 -92.66476315 30.19841065 -85.93359375 18.359375 C-84 15 -84 15 -83 14 C-81.4902678 13.87799762 -79.97527088 13.82021221 -78.4609375 13.7890625 C-77.49953857 13.76295898 -76.53813965 13.73685547 -75.54760742 13.70996094 C-74.50064697 13.68192383 -73.45368652 13.65388672 -72.375 13.625 C-49.22288069 12.80079771 -27.35119313 9.22068133 -5.6875 0.91796875 C-3 0 -3 0 0 0 Z " fill="#FFFFFF" transform="translate(794,170)"/>
<path d="M0 0 C0.99 0.33 1.98 0.66 3 1 C-12.83066037 36.25842685 -36.21926668 64.65895414 -73 79 C-80.59639472 81.66781525 -88.4417129 84.32874539 -96.421875 85.50390625 C-99.43683538 85.96614465 -101.40705482 86.37997491 -104 88 C-106.40352258 91.49029358 -108.19341486 95.05945684 -109.98828125 98.88671875 C-121.7779389 123.87751318 -145.69685916 142.53499366 -170.84375 152.59375 C-184.19781967 157.35476614 -198.83382444 160.35017543 -213 161 C-212 158 -212 158 -210.1809082 156.90014648 C-209.39546631 156.56055908 -208.61002441 156.22097168 -207.80078125 155.87109375 C-206.92768311 155.48091064 -206.05458496 155.09072754 -205.1550293 154.6887207 C-204.21699463 154.27581787 -203.27895996 153.86291504 -202.3125 153.4375 C-193.01156068 149.18116463 -184.98309641 144.36254959 -177 138 C-175.89011719 137.16275391 -175.89011719 137.16275391 -174.7578125 136.30859375 C-157.37574481 122.38199735 -146.72165373 99.49675953 -140.859375 78.64453125 C-140 76 -140 76 -138 73 C-135.32397461 71.99194336 -135.32397461 71.99194336 -131.90234375 71.08984375 C-130.63825684 70.7451001 -129.37416992 70.40035645 -128.07177734 70.04516602 C-127.39798035 69.8652713 -126.72418335 69.68537659 -126.02996826 69.50003052 C-110.87523873 65.42589568 -96.37922215 60.31959328 -82 54 C-81.08041504 53.59668457 -80.16083008 53.19336914 -79.21337891 52.77783203 C-53.7773779 41.47041069 -30.43716554 26.34990461 -9.546875 7.96484375 C-8.66273926 7.19539429 -8.66273926 7.19539429 -7.76074219 6.41040039 C-6.60734049 5.40461236 -5.46178251 4.38974122 -4.32519531 3.36499023 C-2.75 1.9921875 -2.75 1.9921875 0 0 Z " fill="#FFFFFF" transform="translate(813,93)"/>
<path d="M0 0 C3.20561838 0.5952915 5.02032134 1.57973575 7.4765625 3.703125 C8.13769043 4.26467285 8.79881836 4.8262207 9.47998047 5.40478516 C10.18783691 6.01370605 10.89569336 6.62262695 11.625 7.25 C45.2030184 35.4595871 84.30790092 57.42680977 127 68.296875 C127.8257251 68.51045654 128.6514502 68.72403809 129.50219727 68.9440918 C131.08124275 69.34506645 132.66504502 69.72791737 134.25366211 70.08911133 C137.4467432 70.8912818 139.59030378 71.53798327 141.8046875 74.03515625 C143.50307283 78.24781791 144.84912375 82.53672128 146.1875 86.875 C154.81032591 113.61314208 172.33589287 136.30097863 197.51806641 149.29980469 C202.95515701 151.9948755 208.45750013 154.53003773 214 157 C214 157.66 214 158.32 214 159 C186.60089471 158.01619012 159.832255 149.06844008 139 131 C138.19175781 130.33613281 137.38351562 129.67226562 136.55078125 128.98828125 C124.16171702 118.46632874 113.40559605 103.88744574 107.10058594 88.85571289 C105.46795289 86.10290815 103.15195875 85.88551747 100.18725586 85.12573242 C99.40358643 84.93986572 98.61991699 84.75399902 97.8125 84.5625 C96.16334537 84.13557315 94.51491423 83.7058426 92.8671875 83.2734375 C92.0431543 83.06041992 91.21912109 82.84740234 90.37011719 82.62792969 C55.25635859 73.3250262 27.61823721 52.17824572 9.29418945 20.86523438 C5.4612549 14.13578903 2.2547863 7.44237157 0 0 Z " fill="#FFFFFF" transform="translate(194,94)"/>
<path d="M0 0 C3.32669341 1.25561725 6.31038644 2.67472406 9.3359375 4.5390625 C10.14442139 5.032854 10.95290527 5.52664551 11.78588867 6.03540039 C12.64029541 6.55996826 13.49470215 7.08453613 14.375 7.625 C46.47041411 27.03226748 82.7486068 43.18597898 119.91796875 49.68505859 C121.18253906 49.90629395 122.44710937 50.1275293 123.75 50.35546875 C125.47476563 50.61880005 125.47476563 50.61880005 127.234375 50.88745117 C130 52 130 52 131.33691406 54.82568359 C131.55573242 55.87320801 131.77455078 56.92073242 132 58 C132.16467773 58.7520874 132.32935547 59.5041748 132.49902344 60.27905273 C132.61793945 60.99005127 132.73685547 61.7010498 132.859375 62.43359375 C136.54284903 83.23316553 144.2077141 100.87409523 158 117 C158.65935547 117.84111328 158.65935547 117.84111328 159.33203125 118.69921875 C162.27117385 122.44441383 165.66084903 125.38810024 169.328125 128.38671875 C171 130 171 130 172 133 C168.05688837 132.43928229 166.10560273 130.55781148 163.25 127.875 C160.22449764 125.05739035 157.19134791 122.31452419 154 119.6875 C136.20469519 104.00471628 127.41092471 82.57128593 122 60 C121.14059814 59.76925781 120.28119629 59.53851563 119.39575195 59.30078125 C77.38881451 47.95013158 38.85599904 31.60085804 3.93359375 5.2265625 C3.18005615 4.65760254 2.42651855 4.08864258 1.65014648 3.50244141 C1.10559814 3.00663574 0.5610498 2.51083008 0 2 C0 1.34 0 0.68 0 0 Z " fill="#FFFFFF" transform="translate(215,105)"/>
<path d="M0 0 C-14.53405292 11.51940113 -29.62301464 21.2925961 -46 30 C-46.96728027 30.52158691 -46.96728027 30.52158691 -47.95410156 31.05371094 C-65.9609743 40.71202834 -85.18645294 47.82297533 -104.7734375 53.52734375 C-105.62389648 53.7785498 -106.47435547 54.02975586 -107.35058594 54.28857422 C-110 55 -110 55 -113.00097656 55.57470703 C-118.27499289 56.47139363 -118.27499289 56.47139363 -122.26245117 59.66748047 C-123.06401874 61.76897816 -123.55407081 63.79667117 -124 66 C-124.42710568 67.40157326 -124.86866901 68.79881827 -125.32421875 70.19140625 C-125.54368164 70.90079346 -125.76314453 71.61018066 -125.98925781 72.34106445 C-133.71366597 96.91602592 -148.57944921 116.54009241 -170 131 C-170 128 -170 128 -167.2890625 125.171875 C-166.0701889 124.02859964 -164.84864968 122.88816204 -163.625 121.75 C-146.00926269 104.72479658 -135.01336574 81.81743889 -132.25097656 57.49487305 C-131.96875 55.44921875 -131.96875 55.44921875 -131 52 C-127.75519794 49.63663763 -124.74672767 48.49154891 -120.8515625 47.640625 C-119.85850098 47.41608643 -118.86543945 47.19154785 -117.84228516 46.96020508 C-116.78058105 46.7258374 -115.71887695 46.49146973 -114.625 46.25 C-77.36123939 37.59688069 -42.23874294 23.1878535 -9.76245117 2.87353516 C-8.91400635 2.35065918 -8.06556152 1.8277832 -7.19140625 1.2890625 C-6.08067749 0.58837646 -6.08067749 0.58837646 -4.94750977 -0.12646484 C-3 -1 -3 -1 0 0 Z " fill="#FFFFFF" transform="translate(794,107)"/>
<path d="M0 0 C0.33 0 0.66 0 1 0 C1.20753906 1.00417969 1.41507812 2.00835937 1.62890625 3.04296875 C5.18563021 19.23233231 12.07255806 33.36598071 26.3125 42.75 C30.13455763 45.04003174 34.04464133 47.01613938 38.0625 48.9375 C50.72194854 55.13603828 59.505558 64.3428381 65.06640625 77.26953125 C66.4174888 81.22102372 66.79526976 84.83715183 67 89 C65.96875 88.21625 64.9375 87.4325 63.875 86.625 C63.13636719 86.07585937 62.39773438 85.52671875 61.63671875 84.9609375 C59.7552088 83.56165158 57.88387294 82.14864227 56.01953125 80.7265625 C45.95395267 73.18191261 35.10112937 67.4063744 23.79638672 61.93310547 C13.34654777 56.84488799 6.86271133 49.69182181 2.77734375 38.71484375 C-0.1367867 29.61732541 -1.16648367 21.19417518 -1.125 11.6875 C-1.12886719 10.78193359 -1.13273437 9.87636719 -1.13671875 8.94335938 C-1.13542969 8.07904297 -1.13414062 7.21472656 -1.1328125 6.32421875 C-1.13168457 5.54135498 -1.13055664 4.75849121 -1.12939453 3.9519043 C-1 2 -1 2 0 0 Z " fill="#FFFFFF" transform="translate(456,111)"/>
<path d="M0 0 C22.12330569 -0.52445608 45.15710901 -0.09726842 65.65136719 9.06640625 C65.65136719 9.72640625 65.65136719 10.38640625 65.65136719 11.06640625 C64.08977659 11.54852839 62.52704791 12.02696498 60.96386719 12.50390625 C60.09375 12.77074219 59.22363281 13.03757813 58.32714844 13.3125 C44.12107277 17.31508774 28.4270516 16.07134918 15.37792969 9.1171875 C12.95211294 7.64084201 10.78573185 5.93397533 8.65136719 4.06640625 C5.98883208 5.33649958 3.62738417 6.75355696 1.21386719 8.44140625 C-10.99089815 15.97438412 -26.04407438 17.23441375 -39.89941406 14.16015625 C-43.42978405 13.2728918 -46.89630036 12.22234417 -50.34863281 11.06640625 C-50.34863281 10.40640625 -50.34863281 9.74640625 -50.34863281 9.06640625 C-34.40025622 1.82235009 -17.32880285 0.48996199 0 0 Z " fill="#FFFFFF" transform="translate(495.3486328125,241.93359375)"/>
<path d="M0 0 C6.45726238 0.52074697 11.77708115 2.16380878 17.75 4.625 C18.62527344 4.98110352 19.50054687 5.33720703 20.40234375 5.70410156 C29.02458238 9.29245567 37.51608365 13.09582981 44 20 C47.06783239 18.58354585 49.56975824 16.86016722 52.25 14.8125 C62.18275332 7.78046225 77.76420373 0 90 0 C88.06723696 8.11760478 84.75646065 13.03605675 77.63671875 17.47265625 C67.78751229 22.72658754 58.27782825 23.34991778 47.30834961 23.31567383 C45.20178031 23.31252137 43.0966303 23.336015 40.99023438 23.36132812 C27.67778473 23.42487157 16.19676473 21.66794119 6.18359375 12.30078125 C2.59683758 8.45474151 1.04823209 5.13633724 0 0 Z " fill="#FFFFFF" transform="translate(458,217)"/>
<path d="M0 0 C-1.16438235 3.49314705 -1.99801943 3.98594271 -4.9453125 6.0390625 C-5.76757324 6.61519287 -6.58983398 7.19132324 -7.43701172 7.78491211 C-8.32404785 8.39214111 -9.21108398 8.99937012 -10.125 9.625 C-11.03137207 10.25092041 -11.93774414 10.87684082 -12.87158203 11.52172852 C-44.2358868 33 -44.2358868 33 -52 33 C-48.52980649 21.16664012 -39.87851387 12.67824932 -29.48046875 6.50390625 C-20.71712744 2.07625105 -9.83607103 -0.36078253 0 0 Z " fill="#FFFFFF" transform="translate(457,6)"/>
<path d="M0 0 C18.06237945 1.72238499 32.84450704 6.08175374 45.1171875 20.421875 C47.75966248 24.04020173 49.54115775 27.77649868 51 32 C45.32451472 31.47415632 41.06187405 29.27467801 36.125 26.625 C35.29363525 26.18309326 34.46227051 25.74118652 33.60571289 25.28588867 C25.93630527 21.12203671 18.80712579 16.33833816 11.73779297 11.23681641 C8.4286406 8.88163716 5.01800423 6.66973963 1.625 4.4375 C0.820625 3.7259375 0.820625 3.7259375 0 3 C0 2.01 0 1.02 0 0 Z " fill="#FFFFFF" transform="translate(550,6)"/>
<path d="M0 0 C10.75232692 7.43151586 18.40982761 16.35924809 22.6484375 28.921875 C23.15854175 31.93715791 23.17119149 34.88128553 23.1875 37.9375 C23.20167969 39.14277344 23.21585938 40.34804688 23.23046875 41.58984375 C23.00944874 44.86019062 22.40750326 47.06816515 21 50 C16.00841233 48.33613744 14.59443179 43.52748454 12.1875 39.0625 C11.38554199 37.57907104 11.38554199 37.57907104 10.56738281 36.06567383 C7.32880776 29.9176111 4.47540819 23.77303617 2.25 17.1875 C2.01047607 16.49084229 1.77095215 15.79418457 1.52416992 15.07641602 C-0.07372836 9.94774752 -0.18905033 5.36167741 0 0 Z " fill="#FFFFFF" transform="translate(599,11)"/>
<path d="M0 0 C-2.16469546 15.50334271 -7.50202661 27.99966536 -15.3125 41.5 C-15.74506104 42.24886475 -16.17762207 42.99772949 -16.62329102 43.76928711 C-17.68807241 45.55063137 -18.83657885 47.28145468 -20 49 C-20.66 49 -21.32 49 -22 49 C-25.34507269 40.04858547 -25.17022768 30.68644309 -21.52734375 21.83203125 C-17.56061874 14.47685061 -8.98564214 0 0 0 Z " fill="#FFFFFF" transform="translate(408,12)"/>
<path d="M0 0 C0.87398437 -0.00128906 1.74796875 -0.00257813 2.6484375 -0.00390625 C3.54304687 -0.00003906 4.43765625 0.00382813 5.359375 0.0078125 C6.72449219 0.00201172 6.72449219 0.00201172 8.1171875 -0.00390625 C9.42042969 -0.00197266 9.42042969 -0.00197266 10.75 0 C11.93384277 0.00169189 11.93384277 0.00169189 13.14160156 0.00341797 C15.109375 0.1328125 15.109375 0.1328125 17.109375 1.1328125 C15.75874441 5.18470427 13.16402594 6.17491296 9.609375 8.1328125 C8.96645508 8.48730469 8.32353516 8.84179688 7.66113281 9.20703125 C5.82046327 10.20278813 3.96950137 11.17398447 2.109375 12.1328125 C1.35140625 12.5246875 0.5934375 12.9165625 -0.1875 13.3203125 C-8.22887193 16.66552322 -19.67663837 16.59430875 -27.984375 14.265625 C-30.06907258 13.33834069 -31.96768948 12.35426899 -33.890625 11.1328125 C-34.550625 10.8028125 -35.210625 10.4728125 -35.890625 10.1328125 C-35.890625 9.4728125 -35.890625 8.8128125 -35.890625 8.1328125 C-31.8504322 6.9817387 -27.80822947 5.83788489 -23.765625 4.6953125 C-22.05246094 4.20708008 -22.05246094 4.20708008 -20.3046875 3.70898438 C-19.19609375 3.39638672 -18.0875 3.08378906 -16.9453125 2.76171875 C-15.42139893 2.3296814 -15.42139893 2.3296814 -13.86669922 1.88891602 C-9.23111577 0.71119641 -4.78336711 0.00679731 0 0 Z " fill="#FFFFFF" transform="translate(580.890625,229.8671875)"/>
<path d="M0 0 C-1 3 -1 3 -2.65234375 4.16796875 C-12.97324436 8.77267825 -25.36225075 8.74862801 -35.9375 4.9375 C-41.92819996 2.26988551 -47.85532554 -0.90694237 -53 -5 C-53 -5.66 -53 -6.32 -53 -7 C-38.45773673 -14.27113163 -14.29681574 -4.36415137 0 0 Z " fill="#FFFFFF" transform="translate(461,238)"/>
<path d="M0 0 C13.40064805 3.4360636 22.84858371 14.5744567 31 25 C31.94359375 26.17949219 31.94359375 26.17949219 32.90625 27.3828125 C37 32.61586085 37 32.61586085 37 36 C26.07206316 35.55213374 18.47445173 32.08858503 11 24 C5.98220945 17.33686469 0 8.6287368 0 0 Z " fill="#FFFFFF" transform="translate(362,163)"/>
<path d="M0 0 C-0.86916657 7.51494786 -6.95241613 12.44687592 -12.50390625 17.09765625 C-22.35637314 24.35980321 -30.8092506 25.81480587 -43 25 C-43.99 24.67 -44.98 24.34 -46 24 C-44.6381881 19.9145643 -41.89704972 18.5671497 -38.4375 16.3125 C-37.43626099 15.65592407 -37.43626099 15.65592407 -36.41479492 14.98608398 C-25.87680871 8.2166654 -12.94289586 0 0 0 Z " fill="#FFFFFF" transform="translate(626,200)"/>
<path d="M0 0 C-1.41941091 11.84040238 -8.74472538 23.25800878 -18.00390625 30.5859375 C-23.78067854 34.49741149 -29.95148659 36.44053209 -37 36 C-36.42271578 31.92965704 -34.15090058 29.1476263 -31.6875 26 C-31.2445459 25.4332959 -30.8015918 24.8665918 -30.34521484 24.28271484 C-10.96891588 0 -10.96891588 0 0 0 Z " fill="#FFFFFF" transform="translate(644,163)"/>
<path d="M0 0 C5.79809837 0.88510794 8.6369641 5.56495812 12 10 C17.87229946 18.81404185 27 33.14774822 27 44 C19.66971754 43.63348588 14.68189462 38.98223138 9.8125 33.875 C2.19935329 24.47784616 -0.43794586 11.82453825 0 0 Z " fill="#FFFFFF" transform="translate(355,123)"/>
<path d="M0 0 C7.71907147 11.5786072 2.93407405 32.59331614 0.4230957 45.29272461 C-0.03687897 47.53195097 -0.5092222 49.76735261 -1 52 C-4.85058594 51.19140625 -4.85058594 51.19140625 -6.1953125 49.46875 C-11.9130174 37.36066904 -12.05115257 26.39277467 -7.75 13.625 C-5.76063834 8.42830015 -3.55562684 4.26675221 0 0 Z " fill="#FFFFFF" transform="translate(377,43)"/>
<path d="M0 0 C3 1 3 1 4.5 3.30078125 C11.61574185 17.58785669 13.92741009 28.81899522 9.16796875 44.08203125 C8.07192357 46.82031135 6.89294418 48.75992566 5 51 C4.01 50.67 3.02 50.34 2 50 C1.51707679 47.66738977 1.03860141 45.33400412 0.5625 43 C0.42779297 42.35160156 0.29308594 41.70320313 0.15429688 41.03515625 C-1.48390328 32.96402379 -2.18130148 25.16293173 -2.1875 16.9375 C-2.19974609 16.07833984 -2.21199219 15.21917969 -2.22460938 14.33398438 C-2.23647466 9.15676512 -1.68263234 4.90158116 0 0 Z " fill="#FFFFFF" transform="translate(628,44)"/>
<path d="M0 0 C16.59639073 1.27910526 33.8955174 10.73117773 46 22 C46 22.66 46 23.32 46 24 C40.68518488 26.65740756 31.73281813 25.63680849 26.06640625 24.31640625 C15.66428906 20.40546983 6.13058822 12.19588233 0 3 C0 2.01 0 1.02 0 0 Z " fill="#FFFFFF" transform="translate(380,200)"/>
<path d="M0 0 C0.63114144 12.62282882 -2.89901219 25.05152997 -10.6640625 35.16796875 C-14.44107237 39.21230123 -18.75592836 42.16457493 -24 44 C-24.99 44 -25.98 44 -27 44 C-22.86533042 27.6188329 -15.40383 13.46465139 -4 1 C-2 0 -2 0 0 0 Z " fill="#FFFFFF" transform="translate(651,123)"/>
<path d="M0 0 C0.66 0 1.32 0 2 0 C10.86347682 15.5997192 12.7391165 31.42963973 14 49 C8.75291842 48.34298978 6.90846423 46.34752631 3.64453125 42.38671875 C-3.81816409 31.55606114 -4.25981005 18.40603817 -2.0625 5.8125 C-1.16489362 1.16489362 -1.16489362 1.16489362 0 0 Z " fill="#FFFFFF" transform="translate(360,82)"/>
<path d="M0 0 C0.99 0 1.98 0 3 0 C6.36703508 12.77669561 6.40040448 25.79541618 1 38 C-0.76194918 40.92124733 -2.68734435 43.49616482 -5 46 C-5.49371094 46.56460938 -5.98742187 47.12921875 -6.49609375 47.7109375 C-8 49 -8 49 -11 49 C-11.82326848 31.46743052 -8.18865666 15.49995724 0 0 Z " fill="#FFFFFF" transform="translate(644,82)"/>
<path d="M0 0 C-0.3954074 10.7550814 -2.69044495 17.61949643 -10.58984375 25.10546875 C-16.81190847 29.99639482 -24.02376236 33.63744374 -32 34 C-28.48737337 20.30075616 -16.40657756 9.30342763 -5.34765625 1.36328125 C-3 0 -3 0 0 0 Z " fill="#FFFFFF" transform="translate(576,202)"/>
<path d="M0 0 C12.23090809 7.20580631 23.42749939 17.27962664 30 30 C30.703125 32.84765625 30.703125 32.84765625 31 35 C21.19983792 34.55453809 12.15821269 29.27182778 5.62109375 22.13671875 C1.20089343 16.3105752 -0.62567477 10.2369545 -1 3 C-0.67 2.01 -0.34 1.02 0 0 Z " fill="#FFFFFF" transform="translate(431,201)"/>
<path d="M0 0 C-9.88243785 10.52001449 -22.5786772 19.5094755 -37 22 C-38.32 22 -39.64 22 -41 22 C-40.11325902 14.10378272 -32.95242832 8.37060475 -27.0625 3.5625 C-19.30746651 -1.87989925 -8.76111334 -4.38055667 0 0 Z " fill="#FFFFFF" transform="translate(431,41)"/>
<path d="M0 0 C0.886875 0.680625 1.77375 1.36125 2.6875 2.0625 C3.491875 2.59875 4.29625 3.135 5.125 3.6875 C8.99174149 7.27130919 12.045854 11.5024252 14.6875 16.0625 C14.6875 17.0525 14.6875 18.0425 14.6875 19.0625 C2.53689606 18.14547329 -6.56673816 13.14072269 -16.3125 6.0625 C-17.67761719 5.08796875 -17.67761719 5.08796875 -19.0703125 4.09375 C-23.70883322 0.66211712 -23.70883322 0.66211712 -25.3125 -0.9375 C-25.3125 -1.9275 -25.3125 -2.9175 -25.3125 -3.9375 C-16.70345525 -6.80718158 -7.58874016 -4.43869708 0 0 Z " fill="#FFFFFF" transform="translate(601.3125,43.9375)"/>
<path d="M0 0 C0.99 0.33 1.98 0.66 3 1 C5.61915907 8.8574772 5.03706356 17.91716607 1.5625 25.375 C-2.57525685 32.63078215 -7.92240653 39.24595231 -16 42 C-17.19893252 26.71361031 -8.58296044 12.05266786 0 0 Z " fill="#FFFFFF" transform="translate(594,179)"/>
<path d="M0 0 C7.93343782 -0.6751862 13.97235089 2.14886262 20.1875 7 C27.24466131 13.56414605 30.44960014 22.69760084 32 32 C25.48591286 31.83297212 21.67842684 28.08763574 17 24 C16.32710937 23.4225 15.65421875 22.845 14.9609375 22.25 C8.70627566 16.46879862 4.17872752 9.37081104 0 2 C0 1.34 0 0.68 0 0 Z " fill="#FFFFFF" transform="translate(597,64)"/>
<path d="M0 0 C0.66 0 1.32 0 2 0 C3.54602217 2.05326324 4.94206473 4.08283927 6.3125 6.25 C6.71476807 6.88244629 7.11703613 7.51489258 7.53149414 8.16650391 C14.04194012 18.65621219 18.44457851 29.55180167 18 42 C9.10027853 37.90612813 2.46440493 30.15262999 -1.1484375 21.1328125 C-2.06200405 17.77189335 -2.2664245 14.91538871 -2.25 11.4375 C-2.25515625 10.34308594 -2.2603125 9.24867188 -2.265625 8.12109375 C-2.00162841 5.01913386 -1.31501748 2.80223963 0 0 Z " fill="#FFFFFF" transform="translate(410,179)"/>
<path d="M0 0 C-4.93168443 13.16688953 -14.71021742 24.72680788 -27.125 31.390625 C-29 32 -29 32 -32 31 C-29.10840917 19.99494548 -25.70377815 10.65945559 -16 4 C-10.56131393 0.9718671 -6.22997306 -0.53021047 0 0 Z " fill="#FFFFFF" transform="translate(409,64)"/>
<path d="M0 0 C7.28210317 1.6020627 11.67400816 4.70433119 15.75 10.9375 C20.44995384 18.98165176 21.63821476 27.78342806 21 37 C20.67 37.66 20.34 38.32 20 39 C10.14132356 34.52454089 5.53792059 22.67544606 1.890625 13.08203125 C0.46381941 8.63335911 -0.37244648 4.71765536 0 0 Z " fill="#FFFFFF" transform="translate(610,92)"/>
<path d="M0 0 C3.72257395 12.65675144 0.23445847 28.26336264 -5 40 C-5.66 40.99 -6.32 41.98 -7 43 C-7.99 43 -8.98 43 -10 43 C-14.27666606 32.18105312 -14.86929493 20.22892763 -10.34765625 9.38671875 C-8.2387948 5.65189456 -4.70228094 0 0 0 Z " fill="#FFFFFF" transform="translate(393,122)"/>
<path d="M0 0 C-2.96931212 14.69028103 -7.50531603 30.52772088 -20 40 C-20.33 40 -20.66 40 -21 40 C-23.0236301 29.8818495 -21.74192618 18.71922124 -16 10 C-15.4225 9.113125 -14.845 8.22625 -14.25 7.3125 C-10.09003687 3.03698234 -6.05438067 0 0 0 Z " fill="#FFFFFF" transform="translate(397,92)"/>
<path d="M0 0 C2.74344921 2.35262265 3.65852648 4.35549857 4.625 7.8125 C4.86476563 8.64394531 5.10453125 9.47539062 5.3515625 10.33203125 C6.92771428 16.81704128 7.18291117 22.98037974 7.1875 29.625 C7.19974609 30.56601563 7.21199219 31.50703125 7.22460938 32.4765625 C7.22750977 33.8378125 7.22750977 33.8378125 7.23046875 35.2265625 C7.23457764 36.04721191 7.23868652 36.86786133 7.24291992 37.71337891 C6.97751783 40.21162617 6.25105793 41.84001145 5 44 C4.34 44 3.68 44 3 44 C-4.46487469 33.27804555 -6.98787586 23.99206432 -6 11 C-5.00194547 6.48824667 -3.41112523 3.16269594 0 0 Z " fill="#FFFFFF" transform="translate(397,152)"/>
<path d="M0 0 C4.66725418 4.29878675 6.71032568 7.21607733 7.37109375 13.56640625 C7.56599719 25.29500748 5.16433387 34.44755484 -2 44 C-2.99 43.67 -3.98 43.34 -5 43 C-9.35442127 31.36239426 -6.05955903 15.26009073 -2 4 C-1.36504838 2.65127517 -0.71248107 1.30942466 0 0 Z " fill="#FFFFFF" transform="translate(608,152)"/>
<path d="M0 0 C5.78885428 2.57560255 8.89368408 6.97175414 11.875 12.4375 C15.0184215 22.03616209 13.7105653 33.81193354 10 43 C9.01 43 8.02 43 7 43 C0.41813148 29.33383024 -2.84601506 15.178747 0 0 Z " fill="#FFFFFF" transform="translate(613,122)"/>
</svg>
